<?xml version="1.0" encoding="UTF-8" standalone="no"?>
<svg
   xmlns:dc="http://purl.org/dc/elements/1.1/"
   xmlns:cc="http://creativecommons.org/ns#"
   xmlns:rdf="http://www.w3.org/1999/02/22-rdf-syntax-ns#"
   xmlns:svg="http://www.w3.org/2000/svg"
   xmlns="http://www.w3.org/2000/svg"
   viewBox="300 -300 2000 2000"
   height="1040"
   width="1040"
   xml:space="preserve"
   id="svg2"
   version="1.1"><metadata
     id="metadata8"><rdf:RDF><cc:Work
         rdf:about=""><dc:format>image/svg+xml</dc:format><dc:type
           rdf:resource="http://purl.org/dc/dcmitype/StillImage" /></cc:Work></rdf:RDF></metadata><defs
     id="defs6"><clipPath
       id="clipPath18"
       clipPathUnits="userSpaceOnUse"><path
         id="path16"
         d="M 0,1080 H 1920 V 0 H 0 Z" /></clipPath><linearGradient
       id="linearGradient50"
       spreadMethod="pad"
       gradientTransform="matrix(-4.58e-5,919.00732,919.00732,4.58e-5,914.50146,80.547852)"
       gradientUnits="userSpaceOnUse"
       y2="0"
       x2="1"
       y1="0"
       x1="0"><stop
         id="stop44"
         offset="0"
         style="stop-opacity:1;stop-color:#006837" /><stop
         id="stop46"
         offset="0.35498"
         style="stop-opacity:1;stop-color:#39b54a" /><stop
         id="stop48"
         offset="1"
         style="stop-opacity:1;stop-color:#8cc63f" /></linearGradient><linearGradient
       id="linearGradient72"
       spreadMethod="pad"
       gradientTransform="matrix(-3.05e-5,631.29443,631.29443,3.05e-5,785.18896,80.547852)"
       gradientUnits="userSpaceOnUse"
       y2="0"
       x2="1"
       y1="0"
       x1="0"><stop
         id="stop66"
         offset="0"
         style="stop-opacity:1;stop-color:#006837" /><stop
         id="stop68"
         offset="0.35498"
         style="stop-opacity:1;stop-color:#39b54a" /><stop
         id="stop70"
         offset="1"
         style="stop-opacity:1;stop-color:#8cc63f" /></linearGradient><linearGradient
       id="linearGradient94"
       spreadMethod="pad"
       gradientTransform="matrix(-1.53e-5,303.44043,303.44043,1.53e-5,1253.584,80.547852)"
       gradientUnits="userSpaceOnUse"
       y2="0"
       x2="1"
       y1="0"
       x1="0"><stop
         id="stop88"
         offset="0"
         style="stop-opacity:1;stop-color:#006837" /><stop
         id="stop90"
         offset="0.35498"
         style="stop-opacity:1;stop-color:#39b54a" /><stop
         id="stop92"
         offset="1"
         style="stop-opacity:1;stop-color:#8cc63f" /></linearGradient><linearGradient
       id="linearGradient116"
       spreadMethod="pad"
       gradientTransform="matrix(-3.05e-5,822.00488,822.00488,3.05e-5,1127.0332,80.547852)"
       gradientUnits="userSpaceOnUse"
       y2="0"
       x2="1"
       y1="0"
       x1="0"><stop
         id="stop110"
         offset="0"
         style="stop-opacity:1;stop-color:#006837" /><stop
         id="stop112"
         offset="0.35498"
         style="stop-opacity:1;stop-color:#39b54a" /><stop
         id="stop114"
         offset="1"
         style="stop-opacity:1;stop-color:#8cc63f" /></linearGradient><linearGradient
       id="linearGradient138"
       spreadMethod="pad"
       gradientTransform="matrix(-3.05e-5,666.43066,666.43066,3.05e-5,1033.9717,80.547852)"
       gradientUnits="userSpaceOnUse"
       y2="0"
       x2="1"
       y1="0"
       x1="0"><stop
         id="stop132"
         offset="0"
         style="stop-opacity:1;stop-color:#006837" /><stop
         id="stop134"
         offset="0.35498"
         style="stop-opacity:1;stop-color:#39b54a" /><stop
         id="stop136"
         offset="1"
         style="stop-opacity:1;stop-color:#8cc63f" /></linearGradient><linearGradient
       id="linearGradient160"
       spreadMethod="pad"
       gradientTransform="matrix(-3.05e-5,531.71826,531.71826,3.05e-5,915.9917,225.68652)"
       gradientUnits="userSpaceOnUse"
       y2="0"
       x2="1"
       y1="0"
       x1="0"><stop
         id="stop154"
         offset="0"
         style="stop-opacity:1;stop-color:#006837" /><stop
         id="stop156"
         offset="0.35498"
         style="stop-opacity:1;stop-color:#39b54a" /><stop
         id="stop158"
         offset="1"
         style="stop-opacity:1;stop-color:#8cc63f" /></linearGradient><linearGradient
       id="linearGradient182"
       spreadMethod="pad"
       gradientTransform="matrix(-1.53e-5,445.13037,445.13037,1.53e-5,1074.4561,154.85645)"
       gradientUnits="userSpaceOnUse"
       y2="0"
       x2="1"
       y1="0"
       x1="0"><stop
         id="stop176"
         offset="0"
         style="stop-opacity:1;stop-color:#006837" /><stop
         id="stop178"
         offset="0.35498"
         style="stop-opacity:1;stop-color:#39b54a" /><stop
         id="stop180"
         offset="1"
         style="stop-opacity:1;stop-color:#8cc63f" /></linearGradient><linearGradient
       id="linearGradient204"
       spreadMethod="pad"
       gradientTransform="matrix(143.6875,0,0,-143.6875,1213.7734,265.4082)"
       gradientUnits="userSpaceOnUse"
       y2="0"
       x2="1"
       y1="0"
       x1="0"><stop
         id="stop198"
         offset="0"
         style="stop-opacity:1;stop-color:#006837" /><stop
         id="stop200"
         offset="0.35498"
         style="stop-opacity:1;stop-color:#39b54a" /><stop
         id="stop202"
         offset="1"
         style="stop-opacity:1;stop-color:#8cc63f" /></linearGradient><linearGradient
       id="linearGradient226"
       spreadMethod="pad"
       gradientTransform="matrix(-1.53e-5,466.73193,466.73193,1.53e-5,753.03711,200.97656)"
       gradientUnits="userSpaceOnUse"
       y2="0"
       x2="1"
       y1="0"
       x1="0"><stop
         id="stop220"
         offset="0"
         style="stop-opacity:1;stop-color:#006837" /><stop
         id="stop222"
         offset="0.35498"
         style="stop-opacity:1;stop-color:#39b54a" /><stop
         id="stop224"
         offset="1"
         style="stop-opacity:1;stop-color:#8cc63f" /></linearGradient></defs><g
     transform="matrix(1.3333333,0,0,-1.3333333,0,1440)"
     id="g10"><g
       id="g12"><g
         clip-path="url(#clipPath18)"
         id="g14"><g
           transform="translate(1048.6885,1066.4854)"
           id="g20"><path
             id="path22"
             style="fill:#006837;fill-opacity:1;fill-rule:nonzero;stroke:none"
             d="m 0,0 c 0,0 -153.943,-480.135 -179.015,-978.63 h 195.74 c 0,0 -71.931,476.759 -16.725,978.63" /></g><g
           transform="translate(804.4482,80.5479)"
           id="g24"><path
             id="path26"
             style="fill:#006837;fill-opacity:1;fill-rule:nonzero;stroke:none"
             d="m 0,0 c 0,0 23.384,420.514 -51.872,679.832 0,0 165.604,-153.485 210.775,-679.832 z" /></g><g
           transform="translate(675.6328,80.5479)"
           id="g28"><path
             id="path30"
             style="fill:#006837;fill-opacity:1;fill-rule:nonzero;stroke:none"
             d="m 0,0 c 0,0 -1.693,293.354 -172.315,505.803 0,0 230.835,-121.621 327.885,-505.803 z" /></g></g></g><g
       id="g32"><g
         id="g34"><g
           id="g40"><g
             id="g42"><path
               id="path52"
               style="fill:url(#linearGradient50);stroke:none"
               d="m 796.061,80.548 h 227.504 c 0,0 70.276,290.041 -173.956,919.007 v 0 c 0,0 36.795,-700.537 -53.548,-919.007" /></g></g></g></g><g
       id="g54"><g
         id="g56"><g
           id="g62"><g
             id="g64"><path
               id="path74"
               style="fill:url(#linearGradient72);stroke:none"
               d="m 712.412,80.548 h 182.334 c 0,0 -1.642,420.513 -219.113,631.294 v 0 c 0,0 105.385,-402.779 36.779,-631.294" /></g></g></g></g><g
       id="g76"><g
         id="g78"><g
           id="g84"><g
             id="g86"><path
               id="path96"
               style="fill:url(#linearGradient94);stroke:none"
               d="m 1090.485,80.548 h 80.319 95.325 c -6.669,171.702 150.553,303.441 150.553,303.441 v 0 C 1160.717,308.65 1090.485,80.548 1090.485,80.548" /></g></g></g></g><g
       id="g98"><g
         id="g100"><g
           id="g106"><g
             id="g108"><path
               id="path118"
               style="fill:url(#linearGradient116);stroke:none"
               d="m 1040.3,80.548 h 130.504 c 110.392,658.496 -26.801,822.005 -26.801,822.005 v 0 C 1174.118,449.24 1040.3,80.548 1040.3,80.548" /></g></g></g></g><g
       id="g120"><g
         id="g122"><g
           id="g128"><g
             id="g130"><path
               id="path140"
               style="fill:url(#linearGradient138);stroke:none"
               d="m 931.576,80.548 h 195.466 c 0,0 43.762,365.317 -58.304,666.431 v 0 c 0,0 -46.818,-495.758 -137.162,-666.431" /></g></g></g></g><g
       id="g142"><g
         id="g144"><g
           id="g150"><g
             id="g152"><path
               id="path162"
               style="fill:url(#linearGradient160);stroke:none"
               d="m 936.264,225.687 c 6.067,89.077 1.692,178.372 -3.644,267.347 v 0 c -9.315,88.665 -18.901,177.578 -39.841,264.371 v 0 c 25.16,-176.344 39.157,-353.594 43.485,-531.718" /></g></g></g></g><g
       id="g164"><g
         id="g166"><g
           id="g172"><g
             id="g174"><path
               id="path184"
               style="fill:url(#linearGradient182);stroke:none"
               d="m 1061.151,154.857 c 15.048,73.084 20.545,147.536 25.691,221.916 v 0 c 1.193,74.382 2.757,149.154 -6.34,223.215 v 0 c 1.357,-148.833 -5.507,-296.946 -19.351,-445.131" /></g></g></g></g><g
       id="g186"><g
         id="g188"><g
           id="g194"><g
             id="g196"><path
               id="path206"
               style="fill:url(#linearGradient204);stroke:none"
               d="m 1268.126,280.421 c -23.827,-28.82 -46.057,-60.919 -54.353,-97.807 v 0 c 31.926,67.546 85.414,119.779 143.688,165.589 v 0 c -34.129,-15.87 -62.576,-41.395 -89.335,-67.782" /></g></g></g></g><g
       id="g208"><g
         id="g210"><g
           id="g216"><g
             id="g218"><path
               id="path228"
               style="fill:url(#linearGradient226);stroke:none"
               d="m 805.41,200.976 c 3.845,80.493 -10.07,160.628 -26.764,239.104 v 0 c -20.616,77.664 -43.891,155.092 -78.627,227.629 v 0 C 752.854,516.55 795.459,361.119 805.41,200.976" /></g></g></g></g></g></svg>